<svg width="44" height="44" viewBox="0 0 44 44" fill="none" xmlns="http://www.w3.org/2000/svg">
<path d="M22.4583 7.83758V5.04175H21.5417V7.83758C21.6936 7.81449 21.8465 7.79919 22 7.79175C22.1535 7.79919 22.3064 7.81449 22.4583 7.83758V7.83758ZM27.5098 7.51345L26.8617 6.86527L24.886 8.84124C25.1232 9.03508 25.3403 9.25222 25.534 9.48942L27.5098 7.51345ZM29.3333 12.8334V11.9167H26.5375C26.5606 12.0686 26.5759 12.2216 26.5833 12.3751C26.5759 12.5285 26.5606 12.6815 26.5375 12.8334H29.3333ZM19.1142 8.84115L17.1387 6.86591L16.4906 7.51409L18.4661 9.48951C18.6598 9.2522 18.8769 9.03499 19.1142 8.84115V8.84115ZM18.3796 12.8334H19.2963C19.2225 12.4365 19.2371 12.0282 19.3389 11.6376C19.4406 11.2469 19.6272 10.8835 19.8853 10.573C20.1433 10.2626 20.4666 10.0127 20.8321 9.8413C21.1975 9.66984 21.5963 9.58096 22 9.58096C22.4037 9.58096 22.8025 9.66984 23.1679 9.8413C23.5334 10.0127 23.8567 10.2626 24.1147 10.573C24.3728 10.8835 24.5594 11.2469 24.6611 11.6376C24.7629 12.0282 24.7775 12.4365 24.7037 12.8334H25.6204C25.6454 12.6818 25.6607 12.5287 25.6662 12.3751C25.6662 11.4026 25.2799 10.47 24.5923 9.78236C23.9046 9.09472 22.972 8.70841 21.9995 8.70841C21.0271 8.70841 20.0944 9.09472 19.4068 9.78236C18.7192 10.47 18.3329 11.4026 18.3329 12.3751C18.3387 12.5287 18.3543 12.6818 18.3796 12.8334ZM22.4583 32.0834H40.011L35.1869 13.7501H8.81348L3.98897 32.0834H21.5417V35.7501H12.8333V36.6667H31.1667V35.7501H22.4583V32.0834ZM38.8223 31.1667H31.5487L30.029 22.9167H36.6514L38.8223 31.1667ZM34.4798 14.6667L36.41 22.0001H29.8604L28.5092 14.6667H34.4798ZM22.4583 14.6667H27.5763L28.9272 22.0001H22.4583V14.6667ZM22.4583 22.9167H29.096L30.6157 31.1667H22.4583V22.9167ZM9.51986 14.6667H15.4917L14.1408 22.0001H7.59L9.51986 14.6667ZM5.1777 31.1667L7.34901 22.9167H13.9715L12.4517 31.1667H5.1777ZM21.5417 31.1667H13.3838L14.9035 22.9167H21.5417V31.1667ZM21.5417 22.0001H15.0724L16.4233 14.6667H21.5417V22.0001ZM17.4167 12.3751C17.4241 12.2216 17.4394 12.0686 17.4625 11.9167H14.6667V12.8334H17.4625C17.4394 12.6815 17.4241 12.5285 17.4167 12.3751V12.3751Z" fill="#00386D"/>
</svg>
