<svg width="36" height="36" viewBox="0 0 36 36" fill="none" xmlns="http://www.w3.org/2000/svg">
<g clip-path="url(#clip0_31_19968)">
<path d="M27.759 14.625H25.869C25.3078 12.4515 24.1482 10.479 22.5219 8.93159C20.8957 7.3842 18.868 6.32399 16.6693 5.87141C14.4706 5.41884 12.1891 5.59206 10.0839 6.37139C7.97877 7.15072 6.13442 8.5049 4.76043 10.2801C3.38645 12.0552 2.53794 14.1802 2.31132 16.4135C2.08469 18.6468 2.48904 20.899 3.47842 22.9139C4.4678 24.9289 6.00253 26.626 7.90823 27.8123C9.81393 28.9987 12.0142 29.6267 14.259 29.625H27.759C29.7481 29.625 31.6557 28.8348 33.0623 27.4283C34.4688 26.0218 35.259 24.1141 35.259 22.125C35.259 20.1359 34.4688 18.2282 33.0623 16.8217C31.6557 15.4152 29.7481 14.625 27.759 14.625Z" stroke="#00386D" stroke-width="1.5" stroke-linecap="round"/>
</g>
<defs>
<clipPath id="clip0_31_19968">
<rect width="36" height="36" fill="white"/>
</clipPath>
</defs>
</svg>
