<svg xmlns="http://www.w3.org/2000/svg" width="1000" height="310" xml:space="preserve"><path fill="#FFF" d="M864.5 235h58.3v-61.8c48.9-10.3 77.2-47.2 77.2-99.1V25.7h-59.2v44.6c0 32.2-18.4 50.6-47.2 50.6s-47.2-18.4-47.2-50.6V25.7h-59.2v48.5c0 51.9 28.3 88.8 77.2 99.1V235h.1zm-302.8 0H620V128.6c0-32.2 19.3-51.5 48-51.5s48 19.3 48 51.5V235h58.3V123.9c0-59.6-39.9-104.2-106.3-104.2S561.7 64.3 561.7 123.9V235zm-129-50.6c-30.4 0-52.3-22.7-52.3-53.6s21.9-53.6 52.3-53.6S485 99.9 485 130.8s-21.9 53.6-52.3 53.6zm-292-53.6c0-30.9 21.9-53.6 52.3-53.6s52.3 22.7 52.3 53.6-21.9 53.6-52.3 53.6-52.3-22.7-52.3-53.6zM245.3 310h58.3V132.5c0-66-42-112.8-109.8-112.8-66.5 0-112.3 47.6-112.3 111.1 0 65.2 45 108.5 108.9 108.5 20.2 0 39.5-5.6 54.9-18.4V310zM34.7 67.8c19.3 0 34.7-14.6 34.7-33.9S54 0 34.7 0 0 14.6 0 33.9s15.4 33.9 34.7 33.9zM5.6 235h58.3V80.2H5.6V235zm427.1 6.9c66.5 0 111.5-47.6 111.5-111.1s-45-111.1-111.5-111.1-111.5 47.6-111.5 111.1 45 111.1 111.5 111.1z"/></svg>