<svg width="67" height="20" viewBox="0 0 67 20" fill="none" xmlns="http://www.w3.org/2000/svg">
<g clip-path="url(#clip0_36_20322)">
<path d="M1.235 17.7822L0.434998 20.0002H57.115L57.915 17.7822H1.235Z" fill="white"/>
<path d="M3.97299 6.94141C3.80165 6.7108 3.71448 6.42846 3.72599 6.14141C3.71285 5.87541 3.77077 5.61071 3.89379 5.37451C4.01681 5.13831 4.2005 4.93912 4.42599 4.79741C5.10868 4.43735 5.87957 4.27852 6.64899 4.33941C7.44074 4.29283 8.22572 4.50902 8.88199 4.95441C9.11624 5.18053 9.29856 5.45486 9.41632 5.7584C9.53408 6.06195 9.58446 6.38746 9.56399 6.71241H12.001C12.0086 6.0991 11.8745 5.49233 11.609 4.93941C11.3496 4.40847 10.9841 3.9364 10.535 3.55241C10.061 3.15141 9.51396 2.8458 8.92399 2.65241C8.19425 2.43898 7.43727 2.3332 6.67699 2.33841C5.86904 2.33532 5.06299 2.41676 4.27199 2.58141C3.71161 2.72557 3.18112 2.96762 2.70499 3.29641C2.25523 3.60598 1.89006 4.02315 1.64275 4.50993C1.39543 4.9967 1.27382 5.53762 1.28899 6.08341C1.27104 6.58391 1.36535 7.08209 1.56499 7.54141C1.74327 7.91599 2.00049 8.24758 2.31899 8.51341C2.65433 8.79731 3.03676 9.02034 3.44899 9.17241C4.38099 9.51141 6.59399 10.0724 7.11599 10.2154C7.64787 10.3366 8.17077 10.4943 8.68099 10.6874C8.99286 10.8258 9.27401 11.0251 9.50799 11.2734C9.70994 11.5178 9.81336 11.8288 9.79799 12.1454C9.81846 12.4236 9.76317 12.7022 9.63797 12.9516C9.51278 13.2009 9.32237 13.4116 9.08699 13.5614C8.40871 13.8835 7.6622 14.0355 6.91199 14.0044C5.97129 14.0308 5.03915 13.8193 4.20199 13.3894C3.89032 13.1416 3.64593 12.8194 3.49129 12.4524C3.33665 12.0855 3.27671 11.6856 3.31699 11.2894H0.848987C0.833306 12.0017 0.987565 12.7076 1.29899 13.3484C1.58335 13.9201 1.98954 14.4226 2.48899 14.8204C3.00165 15.2213 3.58809 15.5176 4.21499 15.6924C5.06094 15.8857 5.92623 15.9817 6.79399 15.9784C7.56434 15.9833 8.3328 15.9018 9.08499 15.7354C9.67094 15.5927 10.2265 15.3458 10.725 15.0064C11.1791 14.6936 11.552 14.2771 11.813 13.7914C12.0834 13.2663 12.2181 12.6819 12.205 12.0914C12.2239 11.5663 12.1089 11.0449 11.871 10.5764C11.6531 10.182 11.351 9.84057 10.986 9.57641C10.5982 9.29903 10.1734 9.07753 9.72399 8.91841C9.24999 8.74707 8.76165 8.58507 8.25899 8.43241C7.14899 8.09541 5.18799 7.65541 4.80099 7.50341C4.48032 7.39275 4.19464 7.1992 3.97299 6.94241M20.855 15.7734C21.271 15.7354 21.931 15.6974 22.182 15.6594V13.4854C21.637 13.5762 21.0854 13.621 20.533 13.6194C20.106 13.6297 19.6791 13.5962 19.259 13.5194C18.9974 13.4591 18.7599 13.3219 18.577 13.1254C18.3591 12.8817 18.2045 12.588 18.127 12.2704C18.0064 11.7799 17.9525 11.2753 17.967 10.7704V4.77041H21.717V2.68041H17.969V-0.433594H15.449V2.68041H13.008V4.76641H15.449V11.2834C15.4113 12.1422 15.5543 12.9994 15.869 13.7994C16.0914 14.3361 16.4515 14.8045 16.913 15.1574C17.3126 15.4467 17.7748 15.6378 18.262 15.7154C18.703 15.7878 19.149 15.8259 19.596 15.8294C20.0213 15.8294 20.442 15.8104 20.858 15.7724M32.979 7.94241H25.349C25.3358 7.43347 25.4295 6.92742 25.6242 6.45698C25.8188 5.98655 26.11 5.56221 26.479 5.21141C27.2533 4.55164 28.2487 4.20938 29.265 4.25341C30.2449 4.22207 31.1981 4.57605 31.92 5.23941C32.2785 5.58817 32.5584 6.00944 32.741 6.47506C32.9237 6.94068 33.0048 7.43992 32.979 7.93941M35.402 8.88241C35.4113 8.61574 35.4163 8.38707 35.417 8.19641C35.422 7.41789 35.269 6.64646 34.9671 5.92883C34.6653 5.21119 34.2209 4.56229 33.661 4.02141C33.1013 3.48264 32.4407 3.05986 31.717 2.77741C30.9544 2.4788 30.1419 2.32844 29.323 2.33441C28.374 2.31642 27.4312 2.49164 26.552 2.84941C25.7786 3.17181 25.0853 3.65995 24.521 4.27941C23.9573 4.91063 23.5279 5.64997 23.259 6.45241C22.963 7.32702 22.816 8.24511 22.824 9.16841C22.8181 10.066 22.9551 10.9589 23.23 11.8134C23.4818 12.6109 23.8969 13.3472 24.449 13.9754C25.0203 14.6067 25.7236 15.1045 26.509 15.4334C27.428 15.8121 28.4152 15.997 29.409 15.9764C30.177 15.9861 30.9414 15.8703 31.672 15.6334C32.3076 15.4262 32.9054 15.1172 33.442 14.7184C33.9255 14.3585 34.3387 13.9127 34.661 13.4034C34.9648 12.9208 35.1808 12.3883 35.299 11.8304H32.749C32.5228 12.4008 32.1469 12.8997 31.661 13.2744C31.0024 13.7278 30.2096 13.9446 29.412 13.8894C28.777 13.9078 28.145 13.7959 27.555 13.5604C27.0817 13.3626 26.66 13.0592 26.322 12.6734C25.9993 12.2954 25.7531 11.8583 25.597 11.3864C25.4292 10.8834 25.3362 10.3585 25.321 9.82841H35.303C35.3551 9.51601 35.3885 9.20078 35.403 8.88441M48.349 9.17241C48.3532 9.77772 48.2451 10.3786 48.03 10.9444C47.8289 11.484 47.5209 11.9775 47.1245 12.3952C46.728 12.813 46.2514 13.1463 45.723 13.3754C45.1422 13.6294 44.5138 13.7563 43.88 13.7474C43.2499 13.7577 42.6251 13.6308 42.049 13.3754C41.5281 13.1427 41.0594 12.8073 40.671 12.3894C40.2869 11.9687 39.9865 11.4786 39.786 10.9454C39.3603 9.80208 39.3603 8.54374 39.786 7.40041C39.9888 6.86413 40.2889 6.36986 40.671 5.94241C41.0564 5.51755 41.5256 5.17707 42.049 4.94241C42.6249 4.68584 43.2496 4.55755 43.88 4.56641C44.5138 4.55779 45.1421 4.68462 45.723 4.93841C46.255 5.17277 46.7337 5.51302 47.13 5.93841C47.52 6.36276 47.8254 6.8576 48.03 7.39641C48.2453 7.96355 48.3535 8.56576 48.349 9.17241ZM48.349 15.6634H50.849V2.68141H48.349V4.91141C47.9191 4.10621 47.2571 3.44878 46.449 3.02441C45.6174 2.5695 44.6838 2.33344 43.736 2.33841C42.7893 2.32648 41.8505 2.51139 40.979 2.88141C40.1746 3.22499 39.4496 3.73048 38.849 4.36641C38.2551 5.00139 37.7874 5.74359 37.471 6.55341C37.1414 7.38601 36.9741 8.27395 36.978 9.16941C36.9695 10.9421 37.6388 12.651 38.849 13.9464C39.4501 14.5836 40.1762 15.0898 40.982 15.4334C41.8535 15.8033 42.7923 15.9882 43.739 15.9764C44.6868 15.9814 45.6204 15.7453 46.452 15.2904C47.26 14.8659 47.922 14.2085 48.352 13.4034L48.349 15.6634ZM63.815 9.17241C63.8192 9.77772 63.7111 10.3786 63.496 10.9444C63.2949 11.4841 62.9869 11.9776 62.5905 12.3953C62.1941 12.813 61.7174 13.1464 61.189 13.3754C60.6082 13.6294 59.9798 13.7563 59.346 13.7474C58.7169 13.7573 58.0932 13.6304 57.518 13.3754C56.9971 13.1427 56.5284 12.8073 56.14 12.3894C55.7559 11.9687 55.4555 11.4786 55.255 10.9454C54.8297 9.80201 54.8297 8.5438 55.255 7.40041C55.4578 6.86413 55.7579 6.36986 56.14 5.94241C56.5254 5.51755 56.9946 5.17707 57.518 4.94241C58.0939 4.68587 58.7186 4.55758 59.349 4.56641C59.9828 4.55779 60.6111 4.68462 61.192 4.93841C61.724 5.17277 62.2027 5.51302 62.599 5.93841C62.9889 6.36282 63.2943 6.85764 63.499 7.39641C63.714 7.96261 63.8221 8.56377 63.818 9.16941M66.318 13.4964V2.68141H63.818V4.91141C63.3881 4.10621 62.7261 3.44878 61.918 3.02441C61.0864 2.5695 60.1528 2.33344 59.205 2.33841C58.2583 2.32648 57.3195 2.51139 56.448 2.88141C55.6415 3.22427 54.9143 3.72981 54.312 4.36641C53.7181 5.00139 53.2504 5.74359 52.934 6.55341C52.6044 7.38601 52.4371 8.27395 52.441 9.16941C52.4333 10.9415 53.1029 12.6497 54.313 13.9444C54.9147 14.5827 55.642 15.0896 56.449 15.4334C57.3205 15.8033 58.2593 15.9882 59.206 15.9764C60.1538 15.9814 61.0874 15.7453 61.919 15.2904C62.727 14.8659 63.389 14.2085 63.819 13.4034V13.5034C63.7673 14.5288 63.3644 15.5053 62.6779 16.2688C61.9914 17.0323 61.0632 17.5363 60.049 17.6964L59.949 17.8714L59.169 19.9844C63.136 19.8634 66.311 17.0084 66.311 13.4994L66.318 13.4964Z" fill="white"/>
</g>
<defs>
<clipPath id="clip0_36_20322">
<rect width="66" height="20" fill="white" transform="translate(0.372986)"/>
</clipPath>
</defs>
</svg>
