<svg width="317.787" height="125.44" xmlns="http://www.w3.org/2000/svg"><path d="M2363.06 745.387c-4.4 149.613-133.77 195.375-262.27 195.375-121.45 0-248.18-44.879-248.18-182.176 0-101.207 80.09-143.453 229.7-167.215 114.41-18.484 228.83-29.918 228.83-125.851 0-99.454-97.7-124.973-191.86-124.973-120.57 0-208.58 31.687-220.02 163.699h-65.13c9.68-168.98 125.85-223.543 285.15-223.543 122.32 0 262.26 42.242 262.26 196.258 0 120.57-114.41 146.973-228.82 166.332-153.14 25.527-229.7 44.887-229.7 126.738 0 71.282 76.56 110.883 177.77 110.883 101.21 0 188.34-28.16 197.14-135.527h65.13" style="fill:#fff;fill-opacity:1;fill-rule:nonzero;stroke:none" transform="matrix(.13333 0 0 -.13333 0 125.44)"/><path d="M1183.14 296.543h65.13v536.848h1.76l441.8-536.848h75.68v628.375h-65.12V388.07h-1.76l-439.16 536.848h-78.33zm-562.808 0h506.928v59.848H685.453v235.863h418.927v59.84H685.453v212.984h434.767v59.84H620.332V296.543" style="fill:#fff;fill-opacity:1;fill-rule:nonzero;stroke:none" transform="matrix(.13333 0 0 -.13333 0 125.44)"/><path d="M529.066 745.387C524.668 895 395.297 940.762 266.805 940.762c-121.453 0-248.184-44.879-248.184-182.176 0-101.207 80.09-143.453 229.703-167.215 114.41-18.484 228.824-29.918 228.824-125.851 0-99.454-97.695-124.973-191.859-124.973-120.57 0-208.578 31.687-220.023 163.699H.136C9.82 335.266 125.989 280.703 285.29 280.703c122.328 0 262.266 42.242 262.266 196.258 0 120.57-114.41 146.973-228.825 166.332C165.594 668.82 89.027 688.18 89.027 770.031c0 71.282 76.567 110.883 177.778 110.883 101.207 0 188.34-28.16 197.14-135.527h65.121M3.762 39.89h29.515V174.13H3.762Zm146.437 97.2H124.82v-12.406h-.375c-6.019 10.714-17.484 15.039-29.52 15.039-29.515 0-43.616-25.196-43.616-51.891 0-37.602 23.312-50.574 41.172-50.574 11.66 0 24.441 4.324 30.648 14.851h.375V5.672h26.695zM78.004 88.394c0 15.794 6.394 31.211 23.691 31.211 16.731 0 22.75-16.355 22.75-31.586 0-15.98-6.019-30.644-23.316-30.644-17.485 0-23.125 15.418-23.125 31.02zm88.101 0c0-30.832 19.743-51.136 50.2-51.136 30.644 0 50.386 20.304 50.386 51.136 0 31.024-19.742 51.329-50.386 51.329-30.457 0-50.2-20.305-50.2-51.329zm26.7 0c0 15.606 5.449 31.211 23.5 31.211 18.234 0 23.687-15.605 23.687-31.21 0-15.415-5.453-31.02-23.687-31.02-18.051 0-23.5 15.605-23.5 31.02zm89.98-48.503h26.695V90.84c0 19.742 6.208 27.824 20.68 27.824 12.41 0 17.11-7.894 17.11-23.875V39.891h26.699v59.785c0 24.066-7.145 40.047-35.535 40.047-11.282 0-22.938-5.266-29.704-16.168h-.566v13.535h-25.379Zm199.102 97.199h-27.641l-21.242-66.555h-.379l-21.996 66.555h-28.578l34.219-91.184c3.007-7.71 0-17.297-9.215-18.238-5.262-.187-10.528.563-15.606.941v-22c5.453-.562 10.906-.937 16.36-.937 18.425 0 27.636 6.39 33.464 21.996zm55.484-53.02c-1.504-32.71 21.809-47 53.582-47 47.57 0 51.328 29.14 51.328 38.352 0 22-15.793 30.269-34.781 35.348l-32.715 8.082c-10.902 2.632-20.305 7.898-20.305 20.496 0 19.929 16.168 26.695 33.657 26.695 18.988 0 35.91-10.34 36.66-30.832h12.785c.188 27.449-23.125 41.738-49.637 41.738-37.789 0-46.25-24.629-46.25-37.789 0-20.871 14.477-28.39 30.27-32.34l29.894-7.332c12.411-3.007 27.637-9.023 27.637-24.254 0-19.55-21.433-27.261-35.531-27.261-24.442 0-44.371 8.46-43.809 36.097zm165.449 55.653c-29.707 0-45.875-23.5-45.875-51.328 0-27.825 16.168-51.325 45.875-51.325s45.875 23.5 45.875 51.325c0 27.828-16.168 51.328-45.875 51.328zm0-9.965c22.75 0 34.032-20.68 34.032-41.364 0-20.68-11.282-41.363-34.032-41.363-22.75 0-34.031 20.684-34.031 41.364 0 20.683 11.281 41.363 34.031 41.363zm65.41-89.867h11.844v134.238H768.23Zm98.215 37.601c.188-18.988-15.793-30.46-33.843-30.46-11.09 0-21.622 7.335-21.622 19.179 0 18.988 25.008 18.8 45.125 22.375 3.196.562 8.461 1.504 9.965 4.32h.375zm-51.328 29.703c.375 15.793 11.281 22.563 25.946 22.563 13.914 0 25.382-3.949 25.382-19.93 0-10.715-5.453-12.031-15.23-13.16-25.567-3.008-52.078-3.95-52.078-31.211 0-19.55 14.664-28.387 32.527-28.387 18.613 0 27.074 7.145 35.344 19.739h.379c0-10.153 1.879-16.918 13.91-16.918 3.195 0 5.078.187 7.711.75v9.964c-.942-.375-2.445-.753-3.762-.753-4.699 0-6.957 2.632-6.957 7.144v51.516c0 25.945-18.613 31.211-35.723 31.211-22.183 0-38.164-9.778-39.293-32.528zm89.063-67.304h11.843v51.703c0 20.117 14.665 35.91 36.098 34.781v11.844c-17.484.754-30.644-8.461-36.66-24.067h-.379v22.75H904.18Zm117.72 0h93.62v10.902h-80.84v53.02h74.83v10.906h-74.83v48.504h79.9v10.906h-92.68zm109.58 0h11.85v56.59c.38 18.988 11.66 33.277 30.46 33.277 19.17 0 24.63-12.598 24.63-29.328V39.89h11.84v62.419c0 23.125-8.27 37.414-35.53 37.414-13.73 0-26.7-7.899-31.02-19.551h-.38v16.73h-11.85zm184.42 45.308c.94 27.262-11.47 54.524-42.68 54.524-30.83 0-43.8-25.758-43.8-51.328 0-27.637 12.97-51.325 43.8-51.325 24.44 0 37.23 12.782 42.31 34.782h-11.85c-3.76-14.664-13.16-24.82-30.46-24.82-22.75 0-31.77 20.87-31.96 38.167zm-74.64 9.965c1.88 17.672 12.6 34.594 31.96 34.594 19.18 0 30.27-16.735 30.84-34.594zm93.22-55.273h11.84v51.703c0 20.117 14.67 35.91 36.1 34.781v11.844c-17.49.754-30.65-8.461-36.66-24.067h-.38v22.75h-10.9zm97.93 11.09c-21.81 0-31.96 18.992-31.96 38.542 0 20.118 9.4 40.235 31.96 40.235 22.37 0 31.21-21.246 31.21-40.235 0-19.742-10.72-38.542-31.21-38.542zm43.05 85.921h-11.84v-16.73h-.38c-4.7 10.715-16.73 19.551-30.83 19.551-28.01 0-43.81-22.188-43.81-48.883 0-27.637 12.79-49.824 43.81-49.824 13.91 0 25.38 8.086 30.83 19.93h.38v-13.16c0-23.688-9.4-36.661-31.21-36.661-13.16 0-25.76 5.074-28.39 19.363h-11.85c1.7-20.68 20.87-29.328 40.24-29.328 31.77 0 42.87 17.672 43.05 46.625zm52.83-96.636-4.13-11.094c-3.95-9.024-6.39-15.23-16.92-15.23-2.64 0-5.27.378-8.09.94V4.919c1.88-.75 4.33-.75 9.03-.938 14.85 0 18.8 4.7 25.57 21.055l42.11 111.867h-11.84l-29.9-82.722-31.96 82.722h-12.6zm110.96 43.804c-1.51-32.71 21.8-47 53.58-47 47.57 0 51.33 29.14 51.33 38.352 0 22-15.8 30.269-34.79 35.348l-32.71 8.082c-10.91 2.632-20.31 7.898-20.31 20.496 0 19.929 16.17 26.695 33.66 26.695 18.99 0 35.91-10.34 36.66-30.832h12.78c.19 27.449-23.12 41.738-49.63 41.738-37.79 0-46.25-24.629-46.25-37.789 0-20.871 14.48-28.39 30.27-32.34l29.89-7.332c12.41-3.007 27.64-9.023 27.64-24.254 0-19.55-21.43-27.261-35.53-27.261-24.44 0-44.37 8.46-43.81 36.097zm165.44 55.653c-29.7 0-45.87-23.5-45.87-51.329 0-27.824 16.17-51.324 45.87-51.324 29.71 0 45.88 23.5 45.88 51.324 0 27.829-16.17 51.329-45.88 51.329zm0-9.965c22.75 0 34.03-20.68 34.03-41.364 0-20.68-11.28-41.363-34.03-41.363s-34.03 20.684-34.03 41.363c0 20.684 11.28 41.364 34.03 41.364zm65.41-89.867h11.85v134.238h-11.85zm114.31 97.011h-11.84V85.953c0-19.742-8.84-38.922-29.14-38.922-18.81 0-25.39 9.215-25.95 26.7v63.171h-11.84V73.918c0-22.559 9.58-36.848 34.03-36.848 14.47 0 27.26 7.332 33.46 20.305h.38V39.891h10.9zm43.24 29.141h-11.84v-29.141h-16.92v-9.964h16.92V60.57c-.19-16.547 5.26-21.808 21.05-21.808 3.58 0 6.96.375 10.53.375v10.152a92.068 92.068 0 0 0-10.15-.562c-8.46.562-9.59 5.074-9.59 12.785v65.426h19.74v9.964h-19.74zm36.44-126.152h11.84v97.011h-11.84zm0 115.25h11.84v18.988h-11.84zm76.97-15.418c-29.71 0-45.88-23.5-45.88-51.329 0-27.824 16.17-51.324 45.88-51.324 29.7 0 45.87 23.5 45.87 51.324 0 27.829-16.17 51.329-45.87 51.329zm0-9.965c22.75 0 34.03-20.68 34.03-41.364 0-20.68-11.28-41.363-34.03-41.363s-34.03 20.684-34.03 41.363c0 20.684 11.28 41.364 34.03 41.364zm65.03-89.867h11.85v56.59c.37 18.988 11.65 33.277 30.45 33.277 19.18 0 24.63-12.598 24.63-29.328V39.89h11.85v62.419c0 23.125-8.28 37.414-35.54 37.414-13.72 0-26.69-7.899-31.02-19.551h-.37v16.73h-11.85zm172.05 68.621c-.76 21.058-16.17 31.211-35.54 31.211-17.11 0-36.47-7.52-36.47-27.262 0-16.543 11.66-21.809 27.07-25.945l15.23-3.383c10.72-2.633 21.25-6.395 21.25-17.676 0-13.535-15.42-18.426-26.51-18.426-15.8 0-27.64 8.274-28.58 24.254h-11.85c1.88-23.687 17.3-34.215 39.86-34.215 18.05 0 38.92 8.082 38.92 29.14 0 16.923-14.1 24.817-27.64 26.888l-15.79 3.57c-8.08 2.066-20.12 5.828-20.12 16.355 0 12.598 12.41 16.735 22.94 16.735 13.54 0 24.82-6.578 25.38-21.246h11.85" style="fill:#fff;fill-opacity:1;fill-rule:nonzero;stroke:none" transform="matrix(.13333 0 0 -.13333 0 125.44)"/></svg>