<svg width="106" height="17" viewBox="0 0 106 17" fill="none" xmlns="http://www.w3.org/2000/svg">
<path d="M4.23243 15.5532C1.76959 14.7394 0.510811 13.1298 0 10.5255H3.77635C4.26892 12.5511 6.11149 13.1479 9.08514 13.1479C11.8034 13.1479 13.0257 12.6415 13.0257 11.4298C13.0257 10.9596 12.8615 10.616 12.5514 10.417C11.8946 9.98298 10.3804 9.87447 7.35203 9.7117C5.85608 9.62128 4.61554 9.44043 3.63041 9.13298C1.64189 8.57234 0.711487 7.39681 0.711487 5.35319C0.711487 2.51383 3.1196 0.705319 7.95405 0.705319C13.0804 0.705319 15.8169 2.11596 16.5101 5.8234H12.7885C12.3872 3.94255 10.6905 3.58085 7.89933 3.58085C5.12635 3.58085 4.23243 4.19574 4.23243 5.24468C4.23243 5.75106 4.37838 6.11277 5.03514 6.34787C5.67365 6.60106 6.8777 6.76383 8.95743 6.83617C10.7453 6.9266 12.1682 7.10745 13.2811 7.41489C15.5432 8.0117 16.5101 9.15106 16.5101 11.1766C16.5101 14.3234 14.1932 16.15 8.99392 16.15C7.04189 16.1319 5.47297 15.9511 4.23243 15.5532Z" fill="white"/>
<path d="M25.65 16.0957C23.7709 16.0957 22.275 15.8245 21.1439 15.3362C18.8818 14.2872 17.9878 12.4426 17.9878 10.0372C17.9878 8.84362 18.2797 7.7766 18.8635 6.8C20.0676 4.79255 22.3662 3.49043 25.9236 3.49043C27.5838 3.49043 28.952 3.74362 30.1561 4.25C32.4912 5.28085 33.75 7.1617 33.75 9.82021V11.0681H21.3264C21.7459 12.6053 23.0595 13.4011 25.9419 13.4011C28.1128 13.4011 29.1527 12.9851 29.7365 12.1894H33.6041C32.3088 15.1191 29.5723 16.0957 25.65 16.0957ZM21.3993 8.59043H30.2655C29.8642 6.87234 28.5689 6.16702 26.0149 6.16702C23.3878 6.16702 21.8919 7.05319 21.3993 8.59043Z" fill="white"/>
<path d="M50.7709 11.8096H54.8027C55.2041 12.967 56.2074 13.4372 58.9622 13.4372C61.5527 13.4372 62.3007 12.9309 62.3007 12.0989C62.3007 11.7011 62.1365 11.484 61.5345 11.3394C60.9324 11.1766 59.7466 11.0862 57.7581 11.0319C53.0331 10.8872 51.1905 9.92872 51.1905 7.57766C51.1905 6.78191 51.4095 6.0766 51.9203 5.47979C52.8872 4.25 54.8209 3.49043 57.8493 3.49043C62.3189 3.49043 64.7453 4.7383 65.6209 7.59574H61.8081C61.4797 6.38404 60.0203 6.02234 57.8128 6.02234C56.9372 6.02234 56.2986 6.05851 55.8243 6.20319C54.9122 6.45638 54.602 6.85426 54.602 7.2883C54.602 7.63191 54.7115 7.88511 55.277 8.06596C55.8608 8.22872 56.9736 8.33723 58.9622 8.40957C61.6804 8.51809 63.3953 8.80745 64.3804 9.36808C65.4203 9.92872 65.7669 10.7606 65.7669 11.9904C65.7669 14.3596 63.4135 16.0777 58.7615 16.0777C53.8905 16.0957 51.373 14.7213 50.7709 11.8096Z" fill="white"/>
<path d="M72.3709 16.0957C69.1054 16.0957 67.2993 15.0106 67.2993 12.75V12.7319C67.2993 11.3574 67.8831 10.3266 69.1784 9.72979C69.5797 9.54894 69.9993 9.40425 70.4919 9.25957C71.4588 9.00638 72.8817 8.84362 75.4176 8.69894C76.3115 8.64468 76.9865 8.59043 77.4608 8.51809C78.4277 8.3734 78.7743 8.10213 78.7743 7.59574V7.57766C78.7743 7.30638 78.6831 7.07128 78.4642 6.81808C78.0628 6.34787 77.1324 6.02234 75.4176 6.02234C74.3777 6.02234 73.5932 6.0766 73.0094 6.23936C71.8054 6.51064 71.3128 6.72766 71.2034 7.66808H67.573C67.9743 4.52128 70.5101 3.50851 75.0892 3.50851C76.6399 3.50851 77.8986 3.65319 78.9567 3.92447C81.0547 4.50319 82.1311 5.80532 82.1311 8.3734V15.6979H79.2669L78.975 12.9128C77.9899 14.7936 75.8007 16.0957 72.3709 16.0957ZM76.202 13.1117C77.8439 12.4064 78.8108 11.267 78.8108 10.0734V9.98298C78.5007 10.3989 77.6797 10.6883 75.7277 10.7787C73.4473 10.8872 72.4074 11.05 71.7689 11.3574C71.2763 11.6106 71.0209 11.9543 71.0209 12.4245V12.4426C71.0209 13.2202 71.6777 13.6362 73.429 13.6362C74.4689 13.6362 75.3811 13.4553 76.202 13.1117Z" fill="white"/>
<path d="M95.6311 16.0957C92.3655 16.0957 90.5595 15.0106 90.5595 12.75V12.7319C90.5595 11.3574 91.1432 10.3266 92.4385 9.72979C92.8399 9.54894 93.2595 9.40425 93.7338 9.25957C94.7007 9.00638 96.1237 8.84362 98.6595 8.69894C99.5534 8.64468 100.228 8.59043 100.703 8.51809C101.67 8.3734 102.016 8.10213 102.016 7.59574V7.57766C102.016 7.30638 101.925 7.07128 101.706 6.81808C101.305 6.34787 100.374 6.02234 98.6595 6.02234C97.6196 6.02234 96.8351 6.0766 96.2514 6.23936C95.0473 6.51064 94.5547 7.08936 94.4453 8.02979H90.8149C91.2162 4.88298 93.752 3.50851 98.3311 3.50851C99.8818 3.50851 101.141 3.65319 102.199 3.92447C104.297 4.50319 105.373 5.80532 105.373 8.3734V15.6979H102.509L102.199 12.9128C101.268 14.7936 99.0791 16.0957 95.6311 16.0957ZM99.4622 13.1117C101.104 12.4064 102.071 11.267 102.071 10.0734V9.98298C101.761 10.3989 100.94 10.6883 98.9878 10.7787C96.7074 10.8872 95.6676 11.05 95.0291 11.3574C94.5365 11.6106 94.2811 11.9543 94.2811 12.4245V12.4426C94.2811 13.2202 94.9378 13.6362 96.6892 13.6362C97.7473 13.6362 98.6595 13.4553 99.4622 13.1117Z" fill="white"/>
<path d="M86.6372 7.37872C85.9622 7.37872 85.3419 7.1617 84.8311 6.8V15.716H88.4615V6.78192C87.9507 7.1617 87.3304 7.37872 86.6372 7.37872Z" fill="white"/>
<path d="M86.6372 5.24468C88.1989 5.24468 89.4649 4.07062 89.4649 2.62234C89.4649 1.17406 88.1989 0 86.6372 0C85.0755 0 83.8095 1.17406 83.8095 2.62234C83.8095 4.07062 85.0755 5.24468 86.6372 5.24468Z" fill="#FFED00"/>
<path d="M35.2642 15.8606V4.06915H38.3291L38.6209 6.63723C39.5696 4.79255 41.3574 3.63511 43.9662 3.63511C45.2068 3.63511 46.2649 3.85213 47.1588 4.35851C48.8919 5.29894 49.8588 7.05319 49.8588 9.40425V15.8426H46.3013V10.2362C46.3013 7.83085 45.4257 6.4383 42.7986 6.4383C40.0439 6.4383 38.8581 7.84894 38.8581 10.634V15.8426H35.2642V15.8606Z" fill="white"/>
</svg>
